<svg width="24" height="24" viewBox="0 0 24 24" fill="none" xmlns="http://www.w3.org/2000/svg">
<g clip-path="url(#clip0_1_62)">
<mask id="mask0_1_62" style="mask-type:luminance" maskUnits="userSpaceOnUse" x="0" y="-1" width="25" height="25">
<path d="M0.00488281 -0.000701904H24.0049V23.9993H0.00488281V-0.000701904Z" fill="white"/>
</mask>
<g mask="url(#mask0_1_62)">
<path d="M16.2217 20.4837H7.78418V23.2962H16.2217V20.4837Z" stroke="white" stroke-width="1.40625" stroke-miterlimit="10"/>
<path d="M14.8145 20.4839C14.8145 17.7331 15.6287 14.9969 17.1546 12.7081L17.627 11.9995L12.002 1.48078L6.37695 11.9995L6.84927 12.7081C8.37519 14.9969 9.18945 17.7331 9.18945 20.4839" stroke="white" stroke-width="1.40625" stroke-miterlimit="10"/>
<path d="M13.4082 11.9995C13.4082 12.7762 12.7786 13.4058 12.002 13.4058C11.2253 13.4058 10.5957 12.7762 10.5957 11.9995C10.5957 11.2229 11.2253 10.5933 12.002 10.5933C12.7786 10.5933 13.4082 11.2229 13.4082 11.9995Z" stroke="white" stroke-width="1.40625" stroke-miterlimit="10"/>
<path d="M12.002 1.48078V10.5933" stroke="white" stroke-width="1.40625" stroke-miterlimit="10"/>
</g>
</g>
<defs>
<clipPath id="clip0_1_62">
<rect width="24" height="24" fill="white"/>
</clipPath>
</defs>
</svg>
