<svg width="24" height="24" viewBox="0 0 24 24" fill="none" xmlns="http://www.w3.org/2000/svg">
<path d="M16.3575 16.92C16.2025 16.9191 16.0517 16.8702 15.9256 16.7801C15.7996 16.69 15.7045 16.563 15.6536 16.4167C15.6026 16.2704 15.5982 16.1118 15.641 15.9629C15.6838 15.814 15.7716 15.682 15.8925 15.585L20.4525 12L15.9525 8.44499C15.8752 8.38393 15.8107 8.30824 15.7626 8.22223C15.7145 8.13623 15.6839 8.0416 15.6724 7.94375C15.6609 7.8459 15.6688 7.74674 15.6956 7.65195C15.7224 7.55715 15.7677 7.46856 15.8287 7.39124C15.8898 7.31393 15.9655 7.2494 16.0515 7.20134C16.1375 7.15327 16.2321 7.12262 16.33 7.11113C16.4278 7.09964 16.527 7.10753 16.6218 7.13436C16.7166 7.16119 16.8052 7.20643 16.8825 7.26749L22.1325 11.4075C22.2228 11.4776 22.2959 11.5674 22.3462 11.6701C22.3965 11.7728 22.4227 11.8856 22.4227 12C22.4227 12.1143 22.3965 12.2272 22.3462 12.3299C22.2959 12.4326 22.2228 12.5224 22.1325 12.5925L16.815 16.74C16.6871 16.8497 16.5259 16.9131 16.3575 16.92Z" fill="white"/>
<path d="M7.74767 18.0375C7.58196 18.037 7.42108 17.9816 7.29017 17.88L1.77017 13.5675C1.68353 13.4954 1.61427 13.4047 1.56752 13.3021C1.52078 13.1995 1.49776 13.0877 1.50017 12.975C1.50158 12.8617 1.52863 12.7503 1.57929 12.6489C1.62995 12.5476 1.7029 12.4591 1.79267 12.39L7.26767 8.0775C7.34548 8.01643 7.43455 7.97129 7.52981 7.94465C7.62506 7.91801 7.72463 7.91039 7.82283 7.92223C7.92103 7.93407 8.01593 7.96514 8.10212 8.01365C8.18832 8.06217 8.26411 8.12719 8.32517 8.205C8.38624 8.28281 8.43138 8.37188 8.45802 8.46713C8.48466 8.56239 8.49228 8.66196 8.48044 8.76015C8.4686 8.85835 8.43753 8.95326 8.38902 9.03945C8.3405 9.12564 8.27548 9.20143 8.19767 9.2625L3.46517 13.0125L8.23517 16.7625C8.35604 16.8595 8.44391 16.9915 8.48669 17.1404C8.52948 17.2893 8.52509 17.4479 8.47412 17.5942C8.42315 17.7405 8.3281 17.8675 8.20205 17.9576C8.076 18.0477 7.92513 18.0966 7.77017 18.0975L7.74767 18.0375Z" fill="white"/>
<path d="M9.79496 22.5H9.62996C9.53322 22.4787 9.44166 22.4385 9.36055 22.3817C9.27944 22.3248 9.2104 22.2525 9.1574 22.1688C9.10441 22.0851 9.06851 21.9918 9.05179 21.8941C9.03506 21.7965 9.03784 21.6965 9.05996 21.6L13.5 2.085C13.5196 1.98769 13.5583 1.89525 13.614 1.81304C13.6696 1.73082 13.741 1.66047 13.824 1.60605C13.907 1.55164 14 1.51424 14.0976 1.49604C14.1952 1.47783 14.2954 1.47918 14.3925 1.5C14.4885 1.5221 14.5793 1.56293 14.6595 1.62013C14.7398 1.67734 14.808 1.74981 14.8603 1.8334C14.9125 1.91698 14.9478 2.01005 14.964 2.10727C14.9803 2.20449 14.9772 2.30397 14.955 2.4L10.5 21.915C10.4636 22.0767 10.3747 22.2218 10.2472 22.3276C10.1196 22.4335 9.96059 22.4941 9.79496 22.5Z" fill="white"/>
</svg>
