<svg width="24" height="24" viewBox="0 0 24 24" fill="none" xmlns="http://www.w3.org/2000/svg">
<g clip-path="url(#clip0_1_56)">
<path d="M23.714 9.61899L20.7991 5.73245C20.5748 5.43334 20.2145 5.25005 19.8343 5.25005H4.16519C3.78714 5.25005 3.42531 5.43245 3.20035 5.73245L0.285541 9.61894C-0.109572 10.1457 -0.102869 10.9007 0.357167 11.4221L11.0954 23.5921C11.5747 24.1352 12.4235 24.1367 12.9041 23.5921L23.6424 11.4221C24.1068 10.8957 24.1055 10.1409 23.714 9.61899ZM23.1514 10.1251H17.2615L20.2463 6.24527C23.3181 10.3411 23.1211 10.0749 23.1514 10.1251ZM12.1295 23.155C12.0897 23.2817 11.91 23.2817 11.8701 23.1551L8.01066 10.8751H15.9889L12.1295 23.155ZM13.2902 6.00006L15.8287 10.1251H8.17084L10.7093 6.00006H13.2902ZM14.1709 6.00006H19.4886L16.5342 9.84043L14.1709 6.00006ZM7.46536 9.84043L4.51094 6.00006H9.82868L7.46536 9.84043ZM3.75329 6.24527L6.73809 10.1251H0.848187C0.878469 10.0749 0.682576 10.3396 3.75329 6.24527ZM0.879078 10.8751H7.22447L10.7375 22.0528C0.469856 10.4162 0.910063 10.9178 0.879078 10.8751ZM13.262 22.0528L16.775 10.8751H23.1204C23.0897 10.9175 23.7213 10.1991 13.262 22.0528Z" fill="white"/>
<path d="M12 3.375C12.2071 3.375 12.375 3.20709 12.375 3V0.375C12.375 0.167906 12.2071 0 12 0C11.7929 0 11.625 0.167906 11.625 0.375V3C11.625 3.20709 11.7929 3.375 12 3.375Z" fill="white"/>
<path d="M8.70669 3.98425C8.8354 4.14517 9.07128 4.17283 9.23375 4.04284C9.39547 3.91347 9.42172 3.67745 9.29234 3.51578L7.79234 1.64078C7.66297 1.47902 7.42695 1.45291 7.26528 1.58219C7.10356 1.71156 7.07731 1.94758 7.20669 2.10925L8.70669 3.98425Z" fill="white"/>
<path d="M14.7658 4.04284C14.9285 4.17302 15.1643 4.14498 15.2928 3.98425L16.7928 2.10925C16.9222 1.94758 16.896 1.71156 16.7342 1.58219C16.5726 1.45291 16.3366 1.47902 16.2072 1.64078L14.7072 3.51578C14.5778 3.67745 14.604 3.91347 14.7658 4.04284Z" fill="white"/>
</g>
<defs>
<clipPath id="clip0_1_56">
<rect width="24" height="24" fill="white"/>
</clipPath>
</defs>
</svg>
